<mxfile host="app.diagrams.net" agent="Mozilla/5.0 (Windows NT 10.0; Win64; x64) AppleWebKit/537.36 (KHTML, like Gecko) Chrome/140.0.0.0 Safari/537.36" version="28.2.5">
  <diagram name="Page-1" id="f6QP6OF_RPteHdOrJr7H">
    <mxGraphModel dx="2412" dy="845" grid="1" gridSize="10" guides="1" tooltips="1" connect="1" arrows="1" fold="1" page="1" pageScale="1" pageWidth="850" pageHeight="1100" math="0" shadow="0">
      <root>
        <mxCell id="0" />
        <mxCell id="1" parent="0" />
        <mxCell id="sfAw3QfIfHT2kY858uF7-24" style="edgeStyle=orthogonalEdgeStyle;rounded=0;orthogonalLoop=1;jettySize=auto;html=1;exitX=0;exitY=0.75;exitDx=0;exitDy=0;entryX=0.25;entryY=0;entryDx=0;entryDy=0;" edge="1" parent="1" source="sfAw3QfIfHT2kY858uF7-1" target="sfAw3QfIfHT2kY858uF7-12">
          <mxGeometry relative="1" as="geometry" />
        </mxCell>
        <mxCell id="sfAw3QfIfHT2kY858uF7-27" style="edgeStyle=orthogonalEdgeStyle;rounded=0;orthogonalLoop=1;jettySize=auto;html=1;exitX=1;exitY=0.75;exitDx=0;exitDy=0;entryX=0;entryY=0;entryDx=0;entryDy=0;" edge="1" parent="1" source="sfAw3QfIfHT2kY858uF7-1" target="sfAw3QfIfHT2kY858uF7-13">
          <mxGeometry relative="1" as="geometry" />
        </mxCell>
        <mxCell id="sfAw3QfIfHT2kY858uF7-1" value="1.0 Manage Catalog &#xa;and search " style="swimlane;fontStyle=0;childLayout=stackLayout;horizontal=1;startSize=30;fillColor=#ffffff;horizontalStack=0;resizeParent=1;resizeParentMax=0;resizeLast=0;collapsible=0;marginBottom=0;swimlaneFillColor=#ffffff;" vertex="1" parent="1">
          <mxGeometry x="240" y="120" width="130" height="90" as="geometry" />
        </mxCell>
        <mxCell id="sfAw3QfIfHT2kY858uF7-56" style="edgeStyle=orthogonalEdgeStyle;rounded=0;orthogonalLoop=1;jettySize=auto;html=1;exitX=0;exitY=0;exitDx=0;exitDy=45;exitPerimeter=0;entryX=1;entryY=0.5;entryDx=0;entryDy=0;" edge="1" parent="1" source="sfAw3QfIfHT2kY858uF7-2" target="sfAw3QfIfHT2kY858uF7-35">
          <mxGeometry relative="1" as="geometry" />
        </mxCell>
        <mxCell id="sfAw3QfIfHT2kY858uF7-68" style="edgeStyle=orthogonalEdgeStyle;rounded=0;orthogonalLoop=1;jettySize=auto;html=1;exitX=0;exitY=0;exitDx=90;exitDy=0;exitPerimeter=0;entryX=0;entryY=0;entryDx=0;entryDy=0;" edge="1" parent="1" source="sfAw3QfIfHT2kY858uF7-2" target="sfAw3QfIfHT2kY858uF7-1">
          <mxGeometry relative="1" as="geometry" />
        </mxCell>
        <mxCell id="sfAw3QfIfHT2kY858uF7-73" style="edgeStyle=orthogonalEdgeStyle;rounded=0;orthogonalLoop=1;jettySize=auto;html=1;exitX=1;exitY=1;exitDx=0;exitDy=0;exitPerimeter=0;entryX=0;entryY=0.5;entryDx=0;entryDy=0;" edge="1" parent="1" source="sfAw3QfIfHT2kY858uF7-2" target="sfAw3QfIfHT2kY858uF7-72">
          <mxGeometry relative="1" as="geometry" />
        </mxCell>
        <mxCell id="sfAw3QfIfHT2kY858uF7-2" value="Customer" style="html=1;dashed=0;whiteSpace=wrap;shape=mxgraph.dfd.externalEntity" vertex="1" parent="1">
          <mxGeometry x="-140" y="290" width="100" height="100" as="geometry" />
        </mxCell>
        <mxCell id="sfAw3QfIfHT2kY858uF7-3" value="Id" style="autosize=1;part=1;resizable=0;strokeColor=inherit;fillColor=inherit;gradientColor=inherit;" vertex="1" parent="sfAw3QfIfHT2kY858uF7-2">
          <mxGeometry width="20" height="20" relative="1" as="geometry">
            <mxPoint x="15" y="15" as="offset" />
          </mxGeometry>
        </mxCell>
        <mxCell id="sfAw3QfIfHT2kY858uF7-7" style="edgeStyle=orthogonalEdgeStyle;rounded=0;orthogonalLoop=1;jettySize=auto;html=1;exitX=0;exitY=0;exitDx=0;exitDy=22.5;exitPerimeter=0;entryX=0.75;entryY=0;entryDx=0;entryDy=0;" edge="1" parent="1" source="sfAw3QfIfHT2kY858uF7-4" target="sfAw3QfIfHT2kY858uF7-1">
          <mxGeometry relative="1" as="geometry" />
        </mxCell>
        <mxCell id="sfAw3QfIfHT2kY858uF7-4" value="Seller" style="html=1;dashed=0;whiteSpace=wrap;shape=mxgraph.dfd.externalEntity" vertex="1" parent="1">
          <mxGeometry x="520" y="30" width="100" height="100" as="geometry" />
        </mxCell>
        <mxCell id="sfAw3QfIfHT2kY858uF7-5" value="Id" style="autosize=1;part=1;resizable=0;strokeColor=inherit;fillColor=inherit;gradientColor=inherit;" vertex="1" parent="sfAw3QfIfHT2kY858uF7-4">
          <mxGeometry width="20" height="20" relative="1" as="geometry">
            <mxPoint x="15" y="15" as="offset" />
          </mxGeometry>
        </mxCell>
        <mxCell id="sfAw3QfIfHT2kY858uF7-8" value="search/browse requests" style="text;html=1;align=center;verticalAlign=middle;whiteSpace=wrap;rounded=0;" vertex="1" parent="1">
          <mxGeometry x="150" y="55" width="70" height="30" as="geometry" />
        </mxCell>
        <mxCell id="sfAw3QfIfHT2kY858uF7-9" value=" product/price updates" style="text;html=1;align=center;verticalAlign=middle;whiteSpace=wrap;rounded=0;" vertex="1" parent="1">
          <mxGeometry x="410" y="15" width="60" height="30" as="geometry" />
        </mxCell>
        <mxCell id="sfAw3QfIfHT2kY858uF7-75" style="edgeStyle=orthogonalEdgeStyle;rounded=0;orthogonalLoop=1;jettySize=auto;html=1;exitX=0;exitY=1;exitDx=0;exitDy=0;entryX=1;entryY=0.25;entryDx=0;entryDy=0;" edge="1" parent="1" source="sfAw3QfIfHT2kY858uF7-10" target="sfAw3QfIfHT2kY858uF7-72">
          <mxGeometry relative="1" as="geometry" />
        </mxCell>
        <mxCell id="sfAw3QfIfHT2kY858uF7-10" value="D1" style="html=1;dashed=0;whiteSpace=wrap;shape=mxgraph.dfd.dataStoreID;align=left;spacingLeft=3;points=[[0,0],[0.5,0],[1,0],[0,0.5],[1,0.5],[0,1],[0.5,1],[1,1]];" vertex="1" parent="1">
          <mxGeometry x="150" y="300" width="100" height="30" as="geometry" />
        </mxCell>
        <mxCell id="sfAw3QfIfHT2kY858uF7-20" style="edgeStyle=orthogonalEdgeStyle;rounded=0;orthogonalLoop=1;jettySize=auto;html=1;exitX=0;exitY=0;exitDx=0;exitDy=0;" edge="1" parent="1" source="sfAw3QfIfHT2kY858uF7-11">
          <mxGeometry relative="1" as="geometry">
            <mxPoint x="320" y="210" as="targetPoint" />
          </mxGeometry>
        </mxCell>
        <mxCell id="sfAw3QfIfHT2kY858uF7-77" style="edgeStyle=orthogonalEdgeStyle;rounded=0;orthogonalLoop=1;jettySize=auto;html=1;exitX=0;exitY=1;exitDx=0;exitDy=0;entryX=1;entryY=0.5;entryDx=0;entryDy=0;" edge="1" parent="1" source="sfAw3QfIfHT2kY858uF7-13" target="sfAw3QfIfHT2kY858uF7-72">
          <mxGeometry relative="1" as="geometry" />
        </mxCell>
        <mxCell id="sfAw3QfIfHT2kY858uF7-11" value="D2" style="html=1;dashed=0;whiteSpace=wrap;shape=mxgraph.dfd.dataStoreID;align=left;spacingLeft=3;points=[[0,0],[0.5,0],[1,0],[0,0.5],[1,0.5],[0,1],[0.5,1],[1,1]];" vertex="1" parent="1">
          <mxGeometry x="370" y="290" width="100" height="30" as="geometry" />
        </mxCell>
        <mxCell id="sfAw3QfIfHT2kY858uF7-16" style="edgeStyle=orthogonalEdgeStyle;rounded=0;orthogonalLoop=1;jettySize=auto;html=1;exitX=0.5;exitY=0;exitDx=0;exitDy=0;entryX=0.25;entryY=1;entryDx=0;entryDy=0;" edge="1" parent="1" source="sfAw3QfIfHT2kY858uF7-12" target="sfAw3QfIfHT2kY858uF7-1">
          <mxGeometry relative="1" as="geometry" />
        </mxCell>
        <mxCell id="sfAw3QfIfHT2kY858uF7-12" value="Product Catalog" style="text;html=1;align=center;verticalAlign=middle;whiteSpace=wrap;rounded=0;" vertex="1" parent="1">
          <mxGeometry x="185" y="300" width="60" height="30" as="geometry" />
        </mxCell>
        <mxCell id="sfAw3QfIfHT2kY858uF7-121" style="edgeStyle=orthogonalEdgeStyle;rounded=0;orthogonalLoop=1;jettySize=auto;html=1;exitX=0.5;exitY=1;exitDx=0;exitDy=0;entryX=0.75;entryY=0;entryDx=0;entryDy=0;" edge="1" parent="1" source="sfAw3QfIfHT2kY858uF7-13" target="sfAw3QfIfHT2kY858uF7-88">
          <mxGeometry relative="1" as="geometry" />
        </mxCell>
        <mxCell id="sfAw3QfIfHT2kY858uF7-13" value="Inventory" style="text;html=1;align=center;verticalAlign=middle;whiteSpace=wrap;rounded=0;" vertex="1" parent="1">
          <mxGeometry x="400" y="290" width="60" height="30" as="geometry" />
        </mxCell>
        <mxCell id="sfAw3QfIfHT2kY858uF7-17" value="Product details, categories, media" style="text;html=1;align=center;verticalAlign=middle;whiteSpace=wrap;rounded=0;" vertex="1" parent="1">
          <mxGeometry x="200" y="260" width="130" height="30" as="geometry" />
        </mxCell>
        <mxCell id="sfAw3QfIfHT2kY858uF7-22" value="Availability counts" style="text;html=1;align=center;verticalAlign=middle;whiteSpace=wrap;rounded=0;" vertex="1" parent="1">
          <mxGeometry x="330" y="220" width="60" height="30" as="geometry" />
        </mxCell>
        <mxCell id="sfAw3QfIfHT2kY858uF7-25" value="New/updated items, prices, promos, metadata:" style="text;html=1;align=center;verticalAlign=middle;whiteSpace=wrap;rounded=0;" vertex="1" parent="1">
          <mxGeometry x="130" y="190" width="70" height="60" as="geometry" />
        </mxCell>
        <mxCell id="sfAw3QfIfHT2kY858uF7-28" value="Inventory adjustments" style="text;html=1;align=center;verticalAlign=middle;whiteSpace=wrap;rounded=0;" vertex="1" parent="1">
          <mxGeometry x="410" y="250" width="60" height="30" as="geometry" />
        </mxCell>
        <mxCell id="sfAw3QfIfHT2kY858uF7-29" style="edgeStyle=orthogonalEdgeStyle;rounded=0;orthogonalLoop=1;jettySize=auto;html=1;exitX=1;exitY=0.5;exitDx=0;exitDy=0;entryX=0;entryY=0;entryDx=77.5;entryDy=100;entryPerimeter=0;" edge="1" parent="1" source="sfAw3QfIfHT2kY858uF7-1" target="sfAw3QfIfHT2kY858uF7-4">
          <mxGeometry relative="1" as="geometry" />
        </mxCell>
        <mxCell id="sfAw3QfIfHT2kY858uF7-31" value="Product lists/details, availability, pricing" style="text;html=1;align=center;verticalAlign=middle;whiteSpace=wrap;rounded=0;" vertex="1" parent="1">
          <mxGeometry x="-120" y="190" width="75" height="55" as="geometry" />
        </mxCell>
        <mxCell id="sfAw3QfIfHT2kY858uF7-34" value="Catalog load/price update results/alerts" style="text;html=1;align=center;verticalAlign=middle;whiteSpace=wrap;rounded=0;" vertex="1" parent="1">
          <mxGeometry x="400" y="130" width="120" height="30" as="geometry" />
        </mxCell>
        <mxCell id="sfAw3QfIfHT2kY858uF7-35" value="2.0 Manage Customer Accounts &#xa;&amp; Authentication" style="swimlane;fontStyle=0;childLayout=stackLayout;horizontal=1;startSize=30;fillColor=#ffffff;horizontalStack=0;resizeParent=1;resizeParentMax=0;resizeLast=0;collapsible=0;marginBottom=0;swimlaneFillColor=#ffffff;" vertex="1" parent="1">
          <mxGeometry x="-550" y="30" width="180" height="120" as="geometry" />
        </mxCell>
        <mxCell id="sfAw3QfIfHT2kY858uF7-38" value="Registration, login, profile, address changes" style="text;html=1;align=center;verticalAlign=middle;whiteSpace=wrap;rounded=0;" vertex="1" parent="1">
          <mxGeometry x="-360" y="90" width="80" height="60" as="geometry" />
        </mxCell>
        <mxCell id="sfAw3QfIfHT2kY858uF7-52" style="edgeStyle=orthogonalEdgeStyle;rounded=0;orthogonalLoop=1;jettySize=auto;html=1;exitX=0;exitY=0.5;exitDx=0;exitDy=0;entryX=0.5;entryY=1;entryDx=0;entryDy=0;" edge="1" parent="1" source="sfAw3QfIfHT2kY858uF7-39" target="sfAw3QfIfHT2kY858uF7-35">
          <mxGeometry relative="1" as="geometry" />
        </mxCell>
        <mxCell id="sfAw3QfIfHT2kY858uF7-96" style="edgeStyle=orthogonalEdgeStyle;rounded=0;orthogonalLoop=1;jettySize=auto;html=1;exitX=0;exitY=1;exitDx=0;exitDy=0;entryX=0;entryY=0.25;entryDx=0;entryDy=0;" edge="1" parent="1" source="sfAw3QfIfHT2kY858uF7-39" target="sfAw3QfIfHT2kY858uF7-88">
          <mxGeometry relative="1" as="geometry" />
        </mxCell>
        <mxCell id="sfAw3QfIfHT2kY858uF7-39" value="D3" style="html=1;dashed=0;whiteSpace=wrap;shape=mxgraph.dfd.dataStoreID;align=left;spacingLeft=3;points=[[0,0],[0.5,0],[1,0],[0,0.5],[1,0.5],[0,1],[0.5,1],[1,1]];" vertex="1" parent="1">
          <mxGeometry x="-510" y="280" width="100" height="30" as="geometry" />
        </mxCell>
        <mxCell id="sfAw3QfIfHT2kY858uF7-62" style="edgeStyle=orthogonalEdgeStyle;rounded=0;orthogonalLoop=1;jettySize=auto;html=1;exitX=0.75;exitY=0;exitDx=0;exitDy=0;entryX=0.75;entryY=1;entryDx=0;entryDy=0;" edge="1" parent="1" source="sfAw3QfIfHT2kY858uF7-40" target="sfAw3QfIfHT2kY858uF7-35">
          <mxGeometry relative="1" as="geometry" />
        </mxCell>
        <mxCell id="sfAw3QfIfHT2kY858uF7-40" value="Customer Accounts" style="text;html=1;align=center;verticalAlign=middle;whiteSpace=wrap;rounded=0;" vertex="1" parent="1">
          <mxGeometry x="-470" y="280" width="60" height="30" as="geometry" />
        </mxCell>
        <mxCell id="sfAw3QfIfHT2kY858uF7-44" value="Account profile, auth hashes, preferences" style="text;html=1;align=center;verticalAlign=middle;whiteSpace=wrap;rounded=0;" vertex="1" parent="1">
          <mxGeometry x="-630" y="220" width="90" height="30" as="geometry" />
        </mxCell>
        <mxCell id="sfAw3QfIfHT2kY858uF7-48" value="New accounts, password changes, profile/addresses" style="text;html=1;align=center;verticalAlign=middle;whiteSpace=wrap;rounded=0;" vertex="1" parent="1">
          <mxGeometry x="-425" y="220" width="130" height="50" as="geometry" />
        </mxCell>
        <mxCell id="sfAw3QfIfHT2kY858uF7-50" value="Auth/session tokens, profile confirmations" style="text;html=1;align=center;verticalAlign=middle;whiteSpace=wrap;rounded=0;" vertex="1" parent="1">
          <mxGeometry x="-220" y="270" width="40" height="30" as="geometry" />
        </mxCell>
        <mxCell id="sfAw3QfIfHT2kY858uF7-55" style="edgeStyle=orthogonalEdgeStyle;rounded=0;orthogonalLoop=1;jettySize=auto;html=1;exitX=1;exitY=0;exitDx=0;exitDy=0;entryX=0;entryY=0;entryDx=0;entryDy=22.5;entryPerimeter=0;" edge="1" parent="1" source="sfAw3QfIfHT2kY858uF7-35" target="sfAw3QfIfHT2kY858uF7-2">
          <mxGeometry relative="1" as="geometry" />
        </mxCell>
        <mxCell id="sfAw3QfIfHT2kY858uF7-70" style="edgeStyle=orthogonalEdgeStyle;rounded=0;orthogonalLoop=1;jettySize=auto;html=1;exitX=0;exitY=0.5;exitDx=0;exitDy=0;entryX=0;entryY=0;entryDx=90;entryDy=0;entryPerimeter=0;" edge="1" parent="1" source="sfAw3QfIfHT2kY858uF7-1" target="sfAw3QfIfHT2kY858uF7-2">
          <mxGeometry relative="1" as="geometry" />
        </mxCell>
        <mxCell id="sfAw3QfIfHT2kY858uF7-79" style="edgeStyle=orthogonalEdgeStyle;rounded=0;orthogonalLoop=1;jettySize=auto;html=1;exitX=0;exitY=0.75;exitDx=0;exitDy=0;entryX=0.75;entryY=1;entryDx=0;entryDy=0;" edge="1" parent="1" source="sfAw3QfIfHT2kY858uF7-72" target="sfAw3QfIfHT2kY858uF7-40">
          <mxGeometry relative="1" as="geometry">
            <mxPoint x="-360" y="470" as="targetPoint" />
          </mxGeometry>
        </mxCell>
        <mxCell id="sfAw3QfIfHT2kY858uF7-92" style="edgeStyle=orthogonalEdgeStyle;rounded=0;orthogonalLoop=1;jettySize=auto;html=1;exitX=1;exitY=0.75;exitDx=0;exitDy=0;entryX=0.5;entryY=0;entryDx=0;entryDy=0;" edge="1" parent="1" source="sfAw3QfIfHT2kY858uF7-72" target="sfAw3QfIfHT2kY858uF7-88">
          <mxGeometry relative="1" as="geometry" />
        </mxCell>
        <mxCell id="sfAw3QfIfHT2kY858uF7-72" value="3.0 Manage Cart &#xa;and Pricing " style="swimlane;fontStyle=0;childLayout=stackLayout;horizontal=1;startSize=30;fillColor=#ffffff;horizontalStack=0;resizeParent=1;resizeParentMax=0;resizeLast=0;collapsible=0;marginBottom=0;swimlaneFillColor=#ffffff;" vertex="1" parent="1">
          <mxGeometry x="-10" y="440" width="150" height="90" as="geometry" />
        </mxCell>
        <mxCell id="sfAw3QfIfHT2kY858uF7-74" value="Add/remove/update cart items, apply promo codes, select shipping method" style="text;html=1;align=center;verticalAlign=middle;whiteSpace=wrap;rounded=0;" vertex="1" parent="1">
          <mxGeometry x="-40" y="395" width="170" height="30" as="geometry" />
        </mxCell>
        <mxCell id="sfAw3QfIfHT2kY858uF7-76" value="Current prices/promos/&lt;div&gt;product data&lt;/div&gt;" style="text;html=1;align=center;verticalAlign=middle;whiteSpace=wrap;rounded=0;" vertex="1" parent="1">
          <mxGeometry x="170" y="380" width="70" height="60" as="geometry" />
        </mxCell>
        <mxCell id="sfAw3QfIfHT2kY858uF7-78" value="Stock availability for items" style="text;html=1;align=center;verticalAlign=middle;whiteSpace=wrap;rounded=0;" vertex="1" parent="1">
          <mxGeometry x="330" y="400" width="60" height="50" as="geometry" />
        </mxCell>
        <mxCell id="sfAw3QfIfHT2kY858uF7-80" value="Persisted/saved carts (if using stored carts vs. session)" style="text;html=1;align=center;verticalAlign=middle;whiteSpace=wrap;rounded=0;" vertex="1" parent="1">
          <mxGeometry x="-410" y="460" width="180" height="30" as="geometry" />
        </mxCell>
        <mxCell id="sfAw3QfIfHT2kY858uF7-81" style="edgeStyle=orthogonalEdgeStyle;rounded=0;orthogonalLoop=1;jettySize=auto;html=1;exitX=0;exitY=0.5;exitDx=0;exitDy=0;entryX=0;entryY=0;entryDx=55;entryDy=100;entryPerimeter=0;" edge="1" parent="1" source="sfAw3QfIfHT2kY858uF7-72" target="sfAw3QfIfHT2kY858uF7-2">
          <mxGeometry relative="1" as="geometry" />
        </mxCell>
        <mxCell id="sfAw3QfIfHT2kY858uF7-85" value="Cart view (line totals, tax, shipping estimate, grand total)" style="text;html=1;align=center;verticalAlign=middle;whiteSpace=wrap;rounded=0;" vertex="1" parent="1">
          <mxGeometry x="-220" y="410" width="130" height="40" as="geometry" />
        </mxCell>
        <mxCell id="sfAw3QfIfHT2kY858uF7-89" style="edgeStyle=orthogonalEdgeStyle;rounded=0;orthogonalLoop=1;jettySize=auto;html=1;exitX=0;exitY=0;exitDx=100;exitDy=10;exitPerimeter=0;entryX=0.25;entryY=1;entryDx=0;entryDy=0;" edge="1" parent="1" source="sfAw3QfIfHT2kY858uF7-86" target="sfAw3QfIfHT2kY858uF7-88">
          <mxGeometry relative="1" as="geometry" />
        </mxCell>
        <mxCell id="sfAw3QfIfHT2kY858uF7-86" value="Customer&lt;div&gt;&lt;br&gt;&lt;/div&gt;" style="html=1;dashed=0;whiteSpace=wrap;shape=mxgraph.dfd.externalEntity" vertex="1" parent="1">
          <mxGeometry x="255" y="690" width="100" height="100" as="geometry" />
        </mxCell>
        <mxCell id="sfAw3QfIfHT2kY858uF7-87" value="Id" style="autosize=1;part=1;resizable=0;strokeColor=inherit;fillColor=inherit;gradientColor=inherit;" vertex="1" parent="sfAw3QfIfHT2kY858uF7-86">
          <mxGeometry width="20" height="20" relative="1" as="geometry">
            <mxPoint x="15" y="15" as="offset" />
          </mxGeometry>
        </mxCell>
        <mxCell id="sfAw3QfIfHT2kY858uF7-108" style="edgeStyle=orthogonalEdgeStyle;rounded=0;orthogonalLoop=1;jettySize=auto;html=1;exitX=1;exitY=0.75;exitDx=0;exitDy=0;entryX=0.25;entryY=0;entryDx=0;entryDy=0;" edge="1" parent="1" source="sfAw3QfIfHT2kY858uF7-88" target="sfAw3QfIfHT2kY858uF7-104">
          <mxGeometry relative="1" as="geometry" />
        </mxCell>
        <mxCell id="sfAw3QfIfHT2kY858uF7-113" style="edgeStyle=orthogonalEdgeStyle;rounded=0;orthogonalLoop=1;jettySize=auto;html=1;exitX=1;exitY=1;exitDx=0;exitDy=0;entryX=0;entryY=0.5;entryDx=0;entryDy=0;" edge="1" parent="1" source="sfAw3QfIfHT2kY858uF7-88" target="sfAw3QfIfHT2kY858uF7-101">
          <mxGeometry relative="1" as="geometry" />
        </mxCell>
        <mxCell id="sfAw3QfIfHT2kY858uF7-88" value="4.0 Chackout and &#xa;payment processing " style="swimlane;fontStyle=0;childLayout=stackLayout;horizontal=1;startSize=40;fillColor=#ffffff;horizontalStack=0;resizeParent=1;resizeParentMax=0;resizeLast=0;collapsible=0;marginBottom=0;swimlaneFillColor=#ffffff;" vertex="1" parent="1">
          <mxGeometry x="440" y="560" width="120" height="70" as="geometry" />
        </mxCell>
        <mxCell id="sfAw3QfIfHT2kY858uF7-90" value="Shipping address, shipping selection, payment info/token, confirm orde" style="text;html=1;align=center;verticalAlign=middle;whiteSpace=wrap;rounded=0;" vertex="1" parent="1">
          <mxGeometry x="360" y="630" width="90" height="70" as="geometry" />
        </mxCell>
        <mxCell id="sfAw3QfIfHT2kY858uF7-93" value="Cart snapshot/pricing from P3.0" style="text;html=1;align=center;verticalAlign=middle;whiteSpace=wrap;rounded=0;" vertex="1" parent="1">
          <mxGeometry x="400" y="470" width="140" height="30" as="geometry" />
        </mxCell>
        <mxCell id="sfAw3QfIfHT2kY858uF7-97" value="Default addresses, saved payment tokens, preferences" style="text;html=1;align=center;verticalAlign=middle;whiteSpace=wrap;rounded=0;" vertex="1" parent="1">
          <mxGeometry x="230" y="535" width="140" height="30" as="geometry" />
        </mxCell>
        <mxCell id="sfAw3QfIfHT2kY858uF7-100" value="Latest availability for allocation check" style="text;html=1;align=center;verticalAlign=middle;whiteSpace=wrap;rounded=0;" vertex="1" parent="1">
          <mxGeometry x="435" y="390" width="110" height="30" as="geometry" />
        </mxCell>
        <mxCell id="sfAw3QfIfHT2kY858uF7-101" value="D4" style="html=1;dashed=0;whiteSpace=wrap;shape=mxgraph.dfd.dataStoreID;align=left;spacingLeft=3;points=[[0,0],[0.5,0],[1,0],[0,0.5],[1,0.5],[0,1],[0.5,1],[1,1]];" vertex="1" parent="1">
          <mxGeometry x="630" y="770" width="100" height="30" as="geometry" />
        </mxCell>
        <mxCell id="sfAw3QfIfHT2kY858uF7-102" value="D5" style="html=1;dashed=0;whiteSpace=wrap;shape=mxgraph.dfd.dataStoreID;align=left;spacingLeft=3;points=[[0,0],[0.5,0],[1,0],[0,0.5],[1,0.5],[0,1],[0.5,1],[1,1]];" vertex="1" parent="1">
          <mxGeometry x="730" y="600" width="100" height="30" as="geometry" />
        </mxCell>
        <mxCell id="sfAw3QfIfHT2kY858uF7-132" style="edgeStyle=orthogonalEdgeStyle;rounded=0;orthogonalLoop=1;jettySize=auto;html=1;exitX=1;exitY=0;exitDx=0;exitDy=0;entryX=0.5;entryY=0;entryDx=0;entryDy=0;" edge="1" parent="1" source="sfAw3QfIfHT2kY858uF7-103" target="sfAw3QfIfHT2kY858uF7-130">
          <mxGeometry relative="1" as="geometry" />
        </mxCell>
        <mxCell id="sfAw3QfIfHT2kY858uF7-103" value="Orders" style="text;html=1;align=center;verticalAlign=middle;whiteSpace=wrap;rounded=0;" vertex="1" parent="1">
          <mxGeometry x="660" y="770" width="60" height="30" as="geometry" />
        </mxCell>
        <mxCell id="sfAw3QfIfHT2kY858uF7-104" value="Payments" style="text;html=1;align=center;verticalAlign=middle;whiteSpace=wrap;rounded=0;" vertex="1" parent="1">
          <mxGeometry x="760" y="600" width="60" height="30" as="geometry" />
        </mxCell>
        <mxCell id="sfAw3QfIfHT2kY858uF7-106" value="Create order record (Pending/Authorized)" style="text;html=1;align=center;verticalAlign=middle;whiteSpace=wrap;rounded=0;" vertex="1" parent="1">
          <mxGeometry x="590" y="660" width="60" height="30" as="geometry" />
        </mxCell>
        <mxCell id="sfAw3QfIfHT2kY858uF7-109" value="Store payment authorization/capture IDs, results, refunds when applicable" style="text;html=1;align=center;verticalAlign=middle;whiteSpace=wrap;rounded=0;" vertex="1" parent="1">
          <mxGeometry x="630" y="530" width="190" height="30" as="geometry" />
        </mxCell>
        <mxCell id="sfAw3QfIfHT2kY858uF7-119" style="edgeStyle=orthogonalEdgeStyle;rounded=0;orthogonalLoop=1;jettySize=auto;html=1;exitX=0;exitY=0;exitDx=0;exitDy=45;exitPerimeter=0;entryX=0.5;entryY=1;entryDx=0;entryDy=0;" edge="1" parent="1" source="sfAw3QfIfHT2kY858uF7-110" target="sfAw3QfIfHT2kY858uF7-88">
          <mxGeometry relative="1" as="geometry" />
        </mxCell>
        <mxCell id="sfAw3QfIfHT2kY858uF7-110" value="Payment Gateway" style="html=1;dashed=0;whiteSpace=wrap;shape=mxgraph.dfd.externalEntity" vertex="1" parent="1">
          <mxGeometry x="440" y="970" width="100" height="100" as="geometry" />
        </mxCell>
        <mxCell id="sfAw3QfIfHT2kY858uF7-111" value="Id" style="autosize=1;part=1;resizable=0;strokeColor=inherit;fillColor=inherit;gradientColor=inherit;" vertex="1" parent="sfAw3QfIfHT2kY858uF7-110">
          <mxGeometry width="20" height="20" relative="1" as="geometry">
            <mxPoint x="15" y="15" as="offset" />
          </mxGeometry>
        </mxCell>
        <mxCell id="sfAw3QfIfHT2kY858uF7-114" style="edgeStyle=orthogonalEdgeStyle;rounded=0;orthogonalLoop=1;jettySize=auto;html=1;exitX=0.75;exitY=1;exitDx=0;exitDy=0;entryX=0;entryY=0;entryDx=90;entryDy=0;entryPerimeter=0;" edge="1" parent="1" source="sfAw3QfIfHT2kY858uF7-88" target="sfAw3QfIfHT2kY858uF7-110">
          <mxGeometry relative="1" as="geometry" />
        </mxCell>
        <mxCell id="sfAw3QfIfHT2kY858uF7-115" value="Auth/Capture/Refund request" style="text;html=1;align=center;verticalAlign=middle;whiteSpace=wrap;rounded=0;" vertex="1" parent="1">
          <mxGeometry x="545" y="810" width="85" height="150" as="geometry" />
        </mxCell>
        <mxCell id="sfAw3QfIfHT2kY858uF7-120" value="Payment results (approved/declined/dispute notice)" style="text;html=1;align=center;verticalAlign=middle;whiteSpace=wrap;rounded=0;" vertex="1" parent="1">
          <mxGeometry x="320" y="810" width="80" height="170" as="geometry" />
        </mxCell>
        <mxCell id="sfAw3QfIfHT2kY858uF7-122" style="edgeStyle=orthogonalEdgeStyle;rounded=0;orthogonalLoop=1;jettySize=auto;html=1;exitX=1;exitY=0;exitDx=0;exitDy=0;entryX=0;entryY=0;entryDx=100;entryDy=55;entryPerimeter=0;" edge="1" parent="1" source="sfAw3QfIfHT2kY858uF7-88" target="sfAw3QfIfHT2kY858uF7-4">
          <mxGeometry relative="1" as="geometry" />
        </mxCell>
        <mxCell id="sfAw3QfIfHT2kY858uF7-123" value="Payment status signals for reporting" style="text;html=1;align=center;verticalAlign=middle;whiteSpace=wrap;rounded=0;" vertex="1" parent="1">
          <mxGeometry x="570" y="290" width="60" height="30" as="geometry" />
        </mxCell>
        <mxCell id="sfAw3QfIfHT2kY858uF7-124" style="edgeStyle=orthogonalEdgeStyle;rounded=0;orthogonalLoop=1;jettySize=auto;html=1;exitX=0;exitY=0.5;exitDx=0;exitDy=0;entryX=0;entryY=0;entryDx=22.5;entryDy=0;entryPerimeter=0;" edge="1" parent="1" source="sfAw3QfIfHT2kY858uF7-88" target="sfAw3QfIfHT2kY858uF7-86">
          <mxGeometry relative="1" as="geometry" />
        </mxCell>
        <mxCell id="sfAw3QfIfHT2kY858uF7-125" value="Order confirmation/receip" style="text;html=1;align=center;verticalAlign=middle;whiteSpace=wrap;rounded=0;" vertex="1" parent="1">
          <mxGeometry x="170" y="630" width="100" height="30" as="geometry" />
        </mxCell>
        <mxCell id="sfAw3QfIfHT2kY858uF7-142" style="edgeStyle=orthogonalEdgeStyle;rounded=0;orthogonalLoop=1;jettySize=auto;html=1;exitX=0;exitY=0;exitDx=100;exitDy=32.5;exitPerimeter=0;entryX=0.75;entryY=1;entryDx=0;entryDy=0;" edge="1" parent="1" source="sfAw3QfIfHT2kY858uF7-126" target="sfAw3QfIfHT2kY858uF7-130">
          <mxGeometry relative="1" as="geometry" />
        </mxCell>
        <mxCell id="sfAw3QfIfHT2kY858uF7-126" value="Shipping&amp;nbsp;&lt;div&gt;P&lt;span style=&quot;background-color: transparent; color: light-dark(rgb(0, 0, 0), rgb(255, 255, 255));&quot;&gt;artner&lt;/span&gt;&lt;/div&gt;" style="html=1;dashed=0;whiteSpace=wrap;shape=mxgraph.dfd.externalEntity" vertex="1" parent="1">
          <mxGeometry x="810" y="970" width="100" height="100" as="geometry" />
        </mxCell>
        <mxCell id="sfAw3QfIfHT2kY858uF7-127" value="Id" style="autosize=1;part=1;resizable=0;strokeColor=inherit;fillColor=inherit;gradientColor=inherit;" vertex="1" parent="sfAw3QfIfHT2kY858uF7-126">
          <mxGeometry width="20" height="20" relative="1" as="geometry">
            <mxPoint x="15" y="15" as="offset" />
          </mxGeometry>
        </mxCell>
        <mxCell id="sfAw3QfIfHT2kY858uF7-136" style="edgeStyle=orthogonalEdgeStyle;rounded=0;orthogonalLoop=1;jettySize=auto;html=1;exitX=0.75;exitY=0;exitDx=0;exitDy=0;entryX=0.25;entryY=1;entryDx=0;entryDy=0;" edge="1" parent="1" source="sfAw3QfIfHT2kY858uF7-130" target="sfAw3QfIfHT2kY858uF7-135">
          <mxGeometry relative="1" as="geometry" />
        </mxCell>
        <mxCell id="sfAw3QfIfHT2kY858uF7-138" style="edgeStyle=orthogonalEdgeStyle;rounded=0;orthogonalLoop=1;jettySize=auto;html=1;exitX=0;exitY=0.75;exitDx=0;exitDy=0;entryX=0;entryY=1;entryDx=0;entryDy=0;" edge="1" parent="1" source="sfAw3QfIfHT2kY858uF7-130" target="sfAw3QfIfHT2kY858uF7-103">
          <mxGeometry relative="1" as="geometry" />
        </mxCell>
        <mxCell id="sfAw3QfIfHT2kY858uF7-130" value="05 Shipping &#xa;and tracking&#xa;" style="swimlane;fontStyle=0;childLayout=stackLayout;horizontal=1;startSize=40;fillColor=#ffffff;horizontalStack=0;resizeParent=1;resizeParentMax=0;resizeLast=0;collapsible=0;marginBottom=0;swimlaneFillColor=#ffffff;" vertex="1" parent="1">
          <mxGeometry x="850" y="740" width="100" height="70" as="geometry" />
        </mxCell>
        <mxCell id="sfAw3QfIfHT2kY858uF7-133" value="Order/line items to pack/ship" style="text;html=1;align=center;verticalAlign=middle;whiteSpace=wrap;rounded=0;" vertex="1" parent="1">
          <mxGeometry x="770" y="690" width="110" height="30" as="geometry" />
        </mxCell>
        <mxCell id="sfAw3QfIfHT2kY858uF7-134" value="D6" style="html=1;dashed=0;whiteSpace=wrap;shape=mxgraph.dfd.dataStoreID;align=left;spacingLeft=3;points=[[0,0],[0.5,0],[1,0],[0,0.5],[1,0.5],[0,1],[0.5,1],[1,1]];" vertex="1" parent="1">
          <mxGeometry x="880" y="600" width="100" height="30" as="geometry" />
        </mxCell>
        <mxCell id="sfAw3QfIfHT2kY858uF7-135" value="Shipments" style="text;html=1;align=center;verticalAlign=middle;whiteSpace=wrap;rounded=0;" vertex="1" parent="1">
          <mxGeometry x="910" y="600" width="60" height="30" as="geometry" />
        </mxCell>
        <mxCell id="sfAw3QfIfHT2kY858uF7-137" value="Shipment record (label, tracking number, carrier)" style="text;html=1;align=center;verticalAlign=middle;whiteSpace=wrap;rounded=0;" vertex="1" parent="1">
          <mxGeometry x="920" y="640" width="80" height="70" as="geometry" />
        </mxCell>
        <mxCell id="sfAw3QfIfHT2kY858uF7-139" value="Update order with&amp;nbsp;&lt;div&gt;shipment events (Shipped/Delivered/Exception&lt;/div&gt;" style="text;html=1;align=center;verticalAlign=middle;whiteSpace=wrap;rounded=0;" vertex="1" parent="1">
          <mxGeometry x="670" y="820" width="150" height="70" as="geometry" />
        </mxCell>
        <mxCell id="sfAw3QfIfHT2kY858uF7-140" style="edgeStyle=orthogonalEdgeStyle;rounded=0;orthogonalLoop=1;jettySize=auto;html=1;exitX=0.25;exitY=1;exitDx=0;exitDy=0;entryX=0;entryY=0;entryDx=45;entryDy=0;entryPerimeter=0;" edge="1" parent="1" source="sfAw3QfIfHT2kY858uF7-130" target="sfAw3QfIfHT2kY858uF7-126">
          <mxGeometry relative="1" as="geometry" />
        </mxCell>
        <mxCell id="sfAw3QfIfHT2kY858uF7-141" value="Create label, get tracking ID" style="text;html=1;align=center;verticalAlign=middle;whiteSpace=wrap;rounded=0;" vertex="1" parent="1">
          <mxGeometry x="860" y="900" width="60" height="30" as="geometry" />
        </mxCell>
        <mxCell id="sfAw3QfIfHT2kY858uF7-143" value="Tracking events webhooks/polls" style="text;html=1;align=center;verticalAlign=middle;whiteSpace=wrap;rounded=0;" vertex="1" parent="1">
          <mxGeometry x="940" y="840" width="60" height="50" as="geometry" />
        </mxCell>
        <mxCell id="sfAw3QfIfHT2kY858uF7-149" style="edgeStyle=orthogonalEdgeStyle;rounded=0;orthogonalLoop=1;jettySize=auto;html=1;exitX=1;exitY=0.5;exitDx=0;exitDy=0;entryX=0;entryY=0;entryDx=100;entryDy=32.5;entryPerimeter=0;" edge="1" parent="1" source="sfAw3QfIfHT2kY858uF7-130" target="sfAw3QfIfHT2kY858uF7-4">
          <mxGeometry relative="1" as="geometry">
            <Array as="points">
              <mxPoint x="1060" y="775" />
              <mxPoint x="1060" y="62" />
            </Array>
          </mxGeometry>
        </mxCell>
        <mxCell id="sfAw3QfIfHT2kY858uF7-150" value="Shipping/Carrier KPIs &amp;amp; exceptions" style="text;html=1;align=center;verticalAlign=middle;whiteSpace=wrap;rounded=0;" vertex="1" parent="1">
          <mxGeometry x="950" y="85" width="60" height="30" as="geometry" />
        </mxCell>
      </root>
    </mxGraphModel>
  </diagram>
</mxfile>
